<svg id="Capa_1" enable-background="new 0 0 512 512" height="512" viewBox="0 0 512 512" width="512" xmlns="http://www.w3.org/2000/svg"><g><path d="m303.973 350.523c-12.865-4.745-24.861-9.907-28.827-11.641-2.023-1.738-2.057-4.038-1.871-5.329.227-1.579 1.397-5.445 7.367-7.243 9.009-2.712 18.641-.473 27.859 6.479.54.407.946.7 1.198.872 6.848 4.668 16.178 2.896 20.842-3.951 4.615-6.775 2.932-15.98-3.736-20.692l-.241-.182c-7.744-5.84-16.006-9.82-24.439-11.918v-1.679c0-8.284-6.716-15-15-15s-15 6.716-15 15v2.31c-.045.014-.092.023-.137.037-15.382 4.633-26.268 16.782-28.41 31.707-2.015 14.041 4.074 27.548 15.891 35.251.662.432 1.358.811 2.08 1.132.621.277 15.399 6.855 32.041 12.994 3.359 1.239 14.223 5.82 12.985 12.749-.95 5.319-7.6 10.82-17.083 10.82-10.181 0-19.961-4.086-26.164-10.93-5.564-6.138-15.049-6.604-21.188-1.041-6.138 5.563-6.604 15.049-1.041 21.188 8.177 9.022 19 15.411 31.025 18.558v2.226c0 8.284 6.716 15 15 15s15-6.716 15-15v-1.511c17.482-4.285 30.993-17.295 33.982-34.036 2.781-15.564-4.202-35.866-32.133-46.17z"/><path d="m392.135 240.618c10.486-8.246 17.24-21.034 17.24-35.379v-58.328c0-23.752-18.749-43.454-42.224-44.905l24.363-82.771c1.335-4.535.453-9.435-2.379-13.221-2.831-3.786-7.282-6.014-12.01-6.014h-180.001c-4.728 0-9.179 2.23-12.011 6.015-2.832 3.786-3.713 8.686-2.378 13.221l12.777 43.407c-8.031 2.635-15.785 7.047-21.095 12.357l-19.754 19.753h-53.787c-8.284 0-15 6.716-15 15v125.486c0 8.284 6.716 15 15 15h73.064c-13.039 16.759-25.816 40.591-25.816 69.633v177.128c0 8.284 6.716 15 15 15h248.001c8.284 0 15-6.716 15-15v-177.128c0-35.118-18.743-62.658-33.99-79.254zm-12.76-93.707v58.328c0 8.271-6.728 15-15 15h-188.5v-104.273l19.754-19.753c3.02-3.02 10.729-6.213 14.999-6.213h46.497c8.272 0 15 6.729 15 15v11.921c0 8.284 6.716 15 15 15h59.897c.037 0 .074.004.11.004.032 0 .064-.004.097-.004h17.432c8.121.152 14.714 6.859 14.714 14.99zm-22.302-116.911-21.169 71.921h-33.884c-1.586-23.383-21.117-41.921-44.895-41.921h-31.119l-8.83-30zm-241.198 94.753h30v95.486h-30zm280.25 357.247h-218.001v-162.128c0-34.927 27.292-61.243 37.184-69.633h143.661c9.892 8.331 37.156 34.485 37.156 69.633z"/></g></svg>